# xmcd
#
# Track frame offsets: 
#        150
#        13230
#        30514
#        45904
#        64819
#        89624
#        113749
#        130557
#        151008
#        177980
#        195751
#
# Disc length: 2922 seconds
#
# Revision: 0
# Processed by: cddbd v1.5.2PL0 Copyright (c) Steve Scherf et al.
# Submitted via: ExactAudioCopy v1.0b1
#
DISCID=7b0b680b
DTITLE=Thai Thanh - Vuot Thoi Gian 37
DYEAR=1975
DGENRE=Blues
TTITLE0=Loi Gioi Thieu
TTITLE1=Tra Lai Em Yeu
TTITLE2=Em Ra Di Mua Thu
TTITLE3=Toi Ru Em Ngu
TTITLE4=Tinh Nghe Si
TTITLE5=Tuoi Da Buon
TTITLE6=Ngan Thu Ao Tim
TTITLE7=Roi Mai Toi Dua Em
TTITLE8=Giot Mua Thu
TTITLE9=Serenade
TTITLE10=Ngay Tam Biet
EXTD=
EXTT0=
EXTT1=
EXTT2=
EXTT3=
EXTT4=
EXTT5=
EXTT6=
EXTT7=
EXTT8=
EXTT9=
EXTT10=
PLAYORDER=
